<?xml version="1.0" encoding="UTF-8"?>
<svg xmlns="http://www.w3.org/2000/svg" viewBox="0 0 500 500" preserveAspectRatio="xMidYMid slice">
    <defs>
        <!-- Gradient d'accent optimisé -->
        <linearGradient id="logo-gradient" x1="0%" y1="0%" x2="100%" y2="100%">
            <!-- Variation subtile de la même couleur d'accent -->
            <stop offset="0%" stop-color="#3de0cc" /> <!-- Version plus claire -->
            <stop offset="50%" stop-color="#2dd4bf" /> <!-- Couleur d'accent principale -->
            <stop offset="100%" stop-color="#0f766e" /> <!-- Version plus foncée -->
        </linearGradient>

        <!-- Effet de lueur pour les interactions -->
        <filter id="glow" x="-20%" y="-20%" width="140%" height="140%">
            <feGaussianBlur stdDeviation="8" result="blur" />
            <feComposite in="SourceGraphic" in2="blur" operator="over" />
        </filter>

        <!-- Masques pour effets avancés si nécessaire -->
        <mask id="hover-mask">
            <rect x="0" y="0" width="100%" height="100%" fill="white" />
        </mask>
    </defs>

    <g transform="matrix(0.740624, 0, 0, 0.740624, -72.0835, 170.257)" fill="url(#logo-gradient)">
        <!-- Le même path qu'avant -->
        <path opacity="1.000000" stroke="none" d="M 207.271 5.217 C 209.688 -4.187 212.41 -13.125 214.086 -22.255 C 215.238 -28.533 218.362 -32.587 224.015 -34.623 C 230.618 -37.002 233.747 -41.443 235.336 -48.255 C 237.444 -57.289 242.594 -64.902 249.038 -71.69 C 259.012 -82.195 268.599 -93.063 279.873 -102.26 C 292.071 -112.22 305.875 -119.08 320.968 -123.19 C 331.326 -126.01 341.058 -129.68 349.765 -136.24 C 358.376 -142.72 368.256 -146.85 379.021 -148.25 C 386.023 -149.16 393.008 -147.49 399.597 -145.64 C 413.056 -141.84 426.29 -143.08 439.576 -145.68 C 442.723 -146.3 445.452 -146.14 448.27 -144.84 C 472.786 -133.55 496.537 -120.8 519.893 -107.29 C 521.936 -106.11 523.739 -104.63 524.88 -102.51 C 533.958 -85.66 549.21 -76.468 566.147 -69.515 C 573.82 -66.366 579.619 -61.338 582.539 -53.68 C 590.297 -33.328 603.598 -16.827 618.049 -1.018 C 625.006 6.592 631.903 14.277 637.225 23.217 C 643.636 33.99 645.142 46.069 646.461 58.122 C 648.272 74.665 654.147 89.757 662.349 103.979 C 665.772 109.913 666.585 115.606 665.99 122.459 C 664.265 142.316 661.497 162.158 662.616 182.179 C 663.351 195.324 666.311 208.132 668.932 220.976 C 670.014 226.281 669.394 231.14 667.009 235.972 C 662.585 244.933 658.278 253.996 652.734 262.292 C 646.638 271.416 646.067 280.862 649.337 290.857 C 650.275 293.722 650.093 295.564 647.584 297.694 C 641.481 302.873 638.396 310.258 634.537 317.041 C 625.469 332.976 615.772 348.505 604.161 362.728 C 595.261 373.629 583.897 381.346 571.236 387.352 C 562.506 391.494 554.097 396.137 547.502 403.575 C 544.076 407.439 539.551 409.824 534.094 408.296 C 525.692 405.942 517.579 408.216 509.457 409.679 C 497.85 411.77 486.247 413.902 474.507 415.025 C 462.191 416.204 450.303 413.947 438.842 409.452 C 436.078 408.368 433.555 408.192 430.631 408.987 C 416.356 412.869 401.881 415.837 387.261 418.15 C 379.606 419.361 373.291 415.84 366.804 412.955 C 357.044 408.614 347.863 403.163 338.976 397.278 C 334.599 394.379 330.06 393.325 324.889 393.221 C 315.058 393.024 305.351 391.624 296.015 388.322 C 290.969 386.537 286.304 384.331 282.89 379.78 C 280.971 377.222 279.084 373.945 275.539 373.346 C 267.527 371.992 261.774 367.172 257.541 360.9 C 249.347 348.763 239.05 338.733 228.368 328.89 C 212.366 314.144 201.821 295.697 194.124 275.558 C 191.18 267.857 191.094 259.573 190.511 251.487 C 189.521 237.736 186.477 224.189 186.834 210.297 C 187.045 202.112 188.032 194.056 189.62 186.078 C 190.395 182.186 190.349 179.078 186.819 176.471 C 183.456 173.985 181.602 170.272 181.218 166.195 C 178.526 137.652 177.107 109.012 184.173 80.941 C 188.507 63.725 195.726 47.301 200.392 30.114 C 202.613 21.935 204.883 13.771 207.271 5.217 M 227.25 -30.52 C 224.578 -28.661 221.479 -27.473 220.556 -23.628 C 217.688 -11.691 214.599 0.196 211.447 12.063 C 206.893 29.216 201.765 46.197 195.807 62.922 C 190.84 76.865 186.725 91.016 185.616 105.871 C 184.326 123.144 184.351 140.454 184.692 157.748 C 184.834 164.938 185.99 172.096 193.381 176.154 C 195.334 177.226 195.501 179.033 195.122 181.334 C 193.078 193.72 190.661 206.012 192.402 218.794 C 193.762 228.781 195.27 238.783 195.758 248.906 C 196.082 255.641 196.896 262.434 198.34 269.015 C 200.607 279.342 205.705 288.568 211.151 297.537 C 219.344 311.027 229.114 323.242 241.061 333.687 C 237.173 327.17 233.064 320.813 228.613 314.707 C 220.975 304.232 214.002 293.323 206.899 282.491 C 201.252 273.88 202.067 264.041 201.021 254.595 C 200.664 251.378 198.32 247.971 201.042 244.078 C 207.62 267.403 221.051 284.116 244.876 290.95 C 242.462 295.847 241.157 299.906 240.139 304.099 C 239.65 306.111 240.002 307.152 241.663 308.207 C 246.996 311.592 252.228 315.14 257.578 318.499 C 258.975 319.376 260.473 320.656 263.056 319.614 C 259.263 314.068 259.711 307.997 259.946 302.043 C 260.267 293.913 257.88 286.362 253.597 279.912 C 250.249 274.871 250.26 270.43 251.443 265.096 C 255.043 248.859 255.695 232.87 246.255 218.024 C 245.192 216.352 243.351 214.452 243.528 212.839 C 244.274 206.022 243.422 199.19 244.117 192.402 C 245.365 180.211 246.527 168.009 247.981 155.842 C 248.433 152.062 248.152 148.251 248.673 144.327 C 249.025 147.747 252.091 148.575 253.748 150.385 C 254.27 148.649 253.286 146.575 254.647 144.733 C 258.03 149.177 255.786 153.796 255.614 158.31 C 254.907 176.787 256.362 195.228 256.685 213.689 C 256.751 217.486 257.889 221.172 260.471 224.29 C 263.522 227.972 264.79 232.424 265.608 237.081 C 267.587 248.335 266.208 259.669 266.53 270.959 C 266.645 275.032 267.321 278.879 269.081 282.523 C 273.397 291.462 276.163 300.713 275.656 310.813 C 275.46 314.716 276.886 318.221 279.708 321.195 C 285.753 327.567 290.391 334.58 290.904 343.86 C 291.245 350.022 292.796 355.945 298.4 359.91 C 301.234 361.914 303.761 364.348 306.45 366.559 C 320.853 378.393 336.373 388.65 352.24 398.348 C 357.392 401.497 362.5 405.218 369.591 406.682 C 365.551 399.776 361.356 394.228 356.934 388.867 C 349.399 379.729 342.456 370.283 339.416 358.563 C 338.67 355.69 338.719 352.614 337.182 349.942 C 331.119 339.402 326.728 328.076 321.872 316.977 C 320.687 314.268 318.587 311.619 319.23 308.083 C 321.113 308.736 321.511 310.247 322.12 311.51 C 325.736 319.004 329.092 326.632 332.935 334.006 C 337.699 343.147 342.436 352.623 350.213 359.455 C 363.703 371.305 379.939 377.647 397.872 378.415 C 404.306 378.691 408.163 381.215 412.021 385.862 C 416.017 390.675 419.3 396.699 426.819 398.259 C 426.876 396.336 427.923 395.305 429.918 395.864 C 434.089 397.032 438.446 397.127 442.643 397.941 C 456.384 400.606 470.03 399.641 483.715 397.811 C 488.783 397.133 494.106 395.263 498.888 396.172 C 509.619 398.212 520.517 399.392 531.119 401.91 C 536.687 403.233 540.392 401.633 544.008 397.974 C 550.41 391.494 556.799 384.997 563.355 378.675 C 566.162 375.968 568.578 372.891 570.169 369.521 C 574.16 361.064 579.546 353.497 584.448 345.622 C 587.657 340.466 590.213 334.249 594.78 330.751 C 600.989 325.997 605.701 320.286 610.731 314.568 C 614.095 310.743 614.687 306.858 613.324 302.651 C 611.831 298.04 613.092 294.821 616.34 291.586 C 630.802 277.183 631.606 259.031 629.195 240.525 C 627.904 230.616 621.748 222.169 618.12 212.932 C 616.749 209.442 613.639 206.119 615.791 201.782 C 626.428 180.339 630.699 157.572 629.93 133.75 C 629.88 132.18 629.42 130.471 630.849 128.581 C 633.229 134.345 634.932 140.156 638.678 145.413 C 641.597 142.123 641.006 138.372 642.104 135.187 C 645.95 124.035 645.455 113.047 640.802 102.207 C 639.036 98.092 637.54 93.86 635.739 89.761 C 631.666 80.488 627.432 71.221 626.95 60.926 C 626.094 42.628 620.205 26.63 606.86 13.636 C 603.198 10.071 600.068 5.948 596.781 2.009 C 588.495 -7.92 584.272 -20.203 577.702 -31.132 C 573.991 -37.306 571.332 -44.22 567.009 -49.893 C 560.628 -58.266 551.128 -62.4 541.068 -64.527 C 532.939 -66.246 525.43 -68.165 520.922 -76.129 C 519.322 -78.956 516.665 -81.194 514.441 -83.658 C 500.686 -98.895 483.827 -110.16 466.269 -120.32 C 459.241 -124.38 452.565 -129.66 443.564 -129.82 C 434.91 -129.98 435.004 -130.48 437.526 -121.88 C 438.986 -116.9 440.515 -111.86 439.014 -106.61 C 437.047 -106.53 436.876 -107.95 436.267 -108.83 C 430.99 -116.5 425.817 -124.26 418.739 -130.44 C 406.658 -141 391.516 -145.19 376.953 -141.75 C 354.015 -136.33 335.073 -123.13 322.767 -102.05 C 320.645 -98.42 318.414 -94.541 314.736 -92.695 C 306.388 -88.504 303.979 -80.377 300.587 -72.931 C 293.869 -58.182 290.105 -42.463 286.973 -26.681 C 284.303 -13.228 280.16 0.019 280.438 14.009 C 280.527 18.485 279.26 23.244 275.883 26.367 C 270.117 31.698 269.225 38.123 269.448 45.422 C 269.638 51.669 267.79 57.649 264.293 63.131 C 266.231 54.069 263.916 44.926 265.515 35.902 C 266.234 31.845 267.583 28.216 270.405 25.203 C 274.437 20.898 277.169 16.327 274.99 10.029 C 274.376 8.252 274.646 6.006 275.024 4.075 C 279.827 -20.485 283.552 -45.33 292.593 -68.844 C 296.854 -79.928 300.221 -91.78 311.883 -98.087 C 312.719 -98.539 313.422 -99.4 313.955 -100.22 C 317.757 -106.08 321.499 -111.98 325.466 -118.19 C 309.867 -114.88 292.209 -107.03 281.729 -97.642 C 271.682 -88.643 262.508 -78.834 253.203 -69.098 C 245.96 -61.519 240.465 -53.261 238.133 -43.208 C 236.709 -37.071 234.143 -32.64 227.25 -30.52 M 645.196 243.932 C 656.092 223.148 650.664 209.764 636.78 193.977 C 634.328 196.236 634.32 199.721 632.574 202.304 C 629.948 206.193 630.397 209.874 632.624 213.91 C 637.121 222.061 639.88 230.917 642.178 239.909 C 642.462 241.02 642.408 242.218 642.683 243.333 C 642.914 244.266 643.398 245.136 643.911 246.377 C 644.451 245.337 644.679 244.896 645.196 243.932 Z" />
        <!-- Autres éléments du SVG... -->
        <path opacity="1.000000" stroke="none" d="M 547.241 101.34 C 520.243 101.259 498.686 82.795 493.895 56.35 C 490.858 39.588 495.837 25.169 505.293 11.508 C 513.41 -0.218 523.763 -8.402 537.606 -11.8 C 568.39 -19.355 599.415 1.538 603.715 33.494 C 606.825 56.617 592.216 88.969 567.677 97.894 C 561.192 100.252 554.621 101.62 547.241 101.34 M 598.061 29.454 C 592.915 7.014 573.997 -7.654 551.435 -8.473 C 535.961 -9.034 522.611 -2.941 512.765 9.497 C 500.179 25.398 497.63 42.964 506.2 61.271 C 514.482 78.961 529.321 88.598 548.68 89.448 C 578.481 90.756 605.193 63.348 598.061 29.454 Z" />
        <path opacity="1.000000" stroke="none" d="M 435.321 98.813 C 421.939 121.391 402.39 133.034 376.56 131.066 C 348.306 128.913 326.118 106.561 322.768 79.504 C 319.779 55.365 328.525 36.336 347.635 22.403 C 364.125 10.38 382.71 8.414 402.064 15.27 C 424.563 23.239 437.254 39.722 441.211 62.623 C 443.325 74.851 441.205 87.128 435.321 98.813 M 382.727 16.339 C 380.23 16.382 377.683 16.122 375.241 16.514 C 346.863 21.059 324.011 45.228 327.448 77.697 C 330.294 104.592 354.704 126.393 381.647 126.586 C 398.956 126.711 413.456 119.737 424.362 106.458 C 436.408 91.791 440.074 74.903 435.02 56.388 C 432.37 46.681 427.019 38.767 419.825 31.705 C 409.68 21.744 397.684 16.848 382.727 16.339 Z" />
        <path opacity="1.000000" stroke="none" d="M 548.524 344.222 C 551.406 340.275 552.997 335.722 557.918 332.76 C 555.817 344.926 555.012 356.562 549.679 367.206 C 548.691 369.179 547.641 369.642 545.468 369.442 C 536.76 368.641 528.937 364.78 520.674 362.473 C 517.365 361.549 514.084 360.493 510.611 359.59 C 516.213 357.062 522.306 356.664 528.152 355.79 C 536.496 354.543 543.362 351.435 548.524 344.222 Z" />
        <path opacity="1.000000" stroke="none" d="M 473.125 124.343 C 469.971 124.616 467.422 123.566 464.809 123.418 C 458.967 123.085 452.537 118.929 447.383 126.282 C 450.726 121.121 453.435 116.342 455.087 111.178 C 460.357 110.913 458.31 114.509 458.396 117.386 C 468.409 119.433 478.302 121.229 488.655 119.962 C 493.594 119.358 498.501 118.853 503.3 117.532 C 505.501 116.926 507.5 116.289 506.474 113.159 C 505.557 110.364 507.869 110.404 509.82 109.925 C 511.435 113.856 514.096 117.266 514.871 122.149 C 509.271 117.107 504.567 121.735 499.585 122.753 C 490.993 124.51 482.398 126.219 473.125 124.343 Z" />
        <path opacity="1.000000" stroke="none" d="M 427.039 357.605 C 432.176 356.981 436.868 356.374 441.561 355.767 C 441.695 356.264 441.829 356.761 441.963 357.258 C 436.037 361.12 429.019 363.067 422.156 362.635 C 409.901 361.865 404.211 351.139 396.337 343.785 C 399.445 342.948 401.159 345.011 402.95 346.478 C 407.195 349.957 411.891 352.72 416.547 355.545 C 419.597 357.395 423.039 357.921 427.039 357.605 Z" />
        <path opacity="1.000000" stroke="none" d="M 355.675 -70.184 C 358.417 -69.012 361.277 -69.074 364.162 -65.892 C 342.196 -70.34 332.346 -55.542 321.725 -41.285 C 321.511 -54.396 340.915 -70.726 355.675 -70.184 Z" />
        <path opacity="1.000000" stroke="none" d="M 433.641 265.64 C 432.01 264.006 430.152 263.022 429.25 259.846 C 439.98 264.243 449.4 270.455 460.866 270.385 C 453.095 275.628 443.445 273.766 433.641 265.64 Z" />
        <path opacity="1.000000" stroke="none" d="M 550.437 41.728 C 547.289 45.949 543.661 46.18 541.931 42.686 C 540.938 40.683 541.313 38.889 542.762 37.268 C 543.958 35.928 545.37 35.35 547.153 36.034 C 549.586 36.968 550.889 38.598 550.437 41.728 Z" />
        <path opacity="1.000000" stroke="none" d="M 393.563 64.384 C 395.386 60.897 397.957 61.108 400.5 62.436 C 402.511 63.487 403.028 65.51 402.195 67.595 C 401.257 69.942 399.241 70.688 396.9 70.223 C 393.95 69.637 392.864 67.666 393.563 64.384 Z" />
    </g>
</svg>